<svg xmlns="http://www.w3.org/2000/svg" xmlns:xlink="http://www.w3.org/1999/xlink" viewBox="0,0,256,256" width="48px" height="48px"><g fill="none" fill-rule="nonzero" stroke="none" stroke-width="1" stroke-linecap="butt" stroke-linejoin="miter" stroke-miterlimit="10" stroke-dasharray="" stroke-dashoffset="0"><g transform="scale(5.33333,5.33333)"><path d="M44,24c0,11.044 -8.956,20 -20,20c-11.044,0 -20,-8.956 -20,-20c0,-11.044 8.956,-20 20,-20c11.044,0 20,8.956 20,20z" fill="#70bb87"></path><path d="M40,24c0,8.838 -7.162,16 -16,16c-8.838,0 -16,-7.162 -16,-16c0,-8.838 7.163,-16 16,-16c8.837,0 16,7.163 16,16z" fill="#eeeeee"></path><path d="M23,11h2v13h-2z" fill="#000000"></path><path transform="translate(-11.28732,27.25067) rotate(-45.001)" d="M26.082,22.654h2.337v9.192h-2.337z" fill="#000000"></path><path d="M27,24c0,1.657 -1.344,3 -3,3c-1.657,0 -3,-1.343 -3,-3c0,-1.657 1.343,-3 3,-3c1.656,0 3,1.343 3,3" fill="#000000"></path><path d="M25,24c0,0.551 -0.448,1 -1,1c-0.552,0 -1,-0.449 -1,-1c0,-0.553 0.448,-1 1,-1c0.552,0 1,0.447 1,1" fill="#70bb87"></path></g></g></svg>