<svg xmlns="http://www.w3.org/2000/svg" xmlns:xlink="http://www.w3.org/1999/xlink" viewBox="0,0,256,256" width="48px" height="48px"><g fill="#70bb87" fill-rule="nonzero" stroke="none" stroke-width="1" stroke-linecap="butt" stroke-linejoin="miter" stroke-miterlimit="10" stroke-dasharray="" stroke-dashoffset="0" style="mix-blend-mode: normal"><g transform="scale(5.33333,5.33333)"><path d="M44.7,11l-8.7,8.6c0,0 -2.6,0 -5.2,-2.6c-2.6,-2.6 -2.6,-5.2 -2.6,-5.2l8.7,-8.7c-4.9,-1.2 -10.8,0.4 -14.4,4c-5.4,5.4 -0.6,12.3 -2,13.7c-7.6,7.9 -15.4,13.9 -15.6,14.2c-2.3,2.3 -2.4,6 -0.2,8.2c2.2,2.2 5.9,2.1 8.2,-0.2c0.3,-0.3 6.7,-8.4 14.2,-15.9c1.4,-1.4 8,3.7 13.6,-1.8c3.5,-3.6 5.2,-9.4 4,-14.3zM9.4,41.1c-1.4,0 -2.5,-1.1 -2.5,-2.5c0,-1.5 1.1,-2.6 2.5,-2.6c1.4,0 2.5,1.1 2.5,2.5c0,1.4 -1.1,2.6 -2.5,2.6z"></path></g></g></svg>